<svg width="25" height="17" viewBox="0 0 25 17" fill="none" xmlns="http://www.w3.org/2000/svg">
<path d="M16.3225 1.98859H22.5607V3.50203H16.3225V1.98859ZM10.0717 7.97671C11.4507 7.31692 12.173 6.31317 12.173 4.7622C12.173 1.69465 9.89031 0.950439 7.25429 0.950439H-0.000244141V16.3476H7.45754C10.253 16.3476 12.8766 15.003 12.8766 11.876C12.8766 9.94356 11.9635 8.51454 10.0717 7.97671ZM3.38312 3.57708H6.55698C7.77962 3.57708 8.87718 3.91792 8.87718 5.33756C8.87718 6.64462 8.02352 7.16995 6.81339 7.16995H3.38312V3.57708ZM6.99475 13.7334H3.37999V9.49328H7.06667C8.5551 9.49328 9.49632 10.1155 9.49632 11.6915C9.49632 13.2425 8.37374 13.7334 6.99475 13.7334ZM24.9998 10.9348C24.9998 7.63587 23.0704 4.88727 19.5807 4.88727C16.188 4.88727 13.8803 7.442 13.8803 10.791C13.8803 14.2619 16.066 16.6446 19.5807 16.6446C22.2418 16.6446 23.9647 15.447 24.7934 12.8923H22.0948C21.8009 13.846 20.6064 14.3463 19.6777 14.3463C17.8828 14.3463 16.9447 13.2957 16.9447 11.5102H24.9779C24.9872 11.3257 24.9998 11.1318 24.9998 10.9348ZM16.9447 9.57771C17.0417 8.11116 18.0204 7.19497 19.4838 7.19497C21.0223 7.19497 21.7915 8.09866 21.926 9.57771H16.9447Z" fill="#FCE06F"/>
</svg>
