<svg width="95" height="190" viewBox="0 0 95 190" fill="none" xmlns="http://www.w3.org/2000/svg">
<g clip-path="url(#clip0)">
<line y1="-0.5" x2="484.274" y2="-0.5" transform="matrix(-0.718868 -0.695146 -0.718868 0.695146 76.1296 443.198)" stroke="#50023D"/>
<line y1="-0.5" x2="484.274" y2="-0.5" transform="matrix(-0.718868 -0.695146 -0.718868 0.695146 81.4868 438.017)" stroke="#520540"/>
<line y1="-0.5" x2="484.274" y2="-0.5" transform="matrix(-0.718868 -0.695146 -0.718868 0.695146 86.8442 432.836)" stroke="#550842"/>
<line y1="-0.5" x2="484.274" y2="-0.5" transform="matrix(-0.718868 -0.695146 -0.718868 0.695146 92.2017 427.656)" stroke="#570C45"/>
<line y1="-0.5" x2="484.274" y2="-0.5" transform="matrix(-0.718868 -0.695146 -0.718868 0.695146 97.5591 422.475)" stroke="#590F47"/>
<line y1="-0.5" x2="484.274" y2="-0.5" transform="matrix(-0.718868 -0.695146 -0.718868 0.695146 102.916 417.295)" stroke="#5C124A"/>
<line y1="-0.5" x2="484.274" y2="-0.5" transform="matrix(-0.718868 -0.695146 -0.718868 0.695146 108.274 412.114)" stroke="#5E154C"/>
<line y1="-0.5" x2="484.274" y2="-0.5" transform="matrix(-0.718868 -0.695146 -0.718868 0.695146 113.631 406.934)" stroke="#61184F"/>
<line y1="-0.5" x2="484.274" y2="-0.5" transform="matrix(-0.718868 -0.695146 -0.718868 0.695146 118.988 401.753)" stroke="#631B51"/>
<line y1="-0.5" x2="484.274" y2="-0.5" transform="matrix(-0.718868 -0.695146 -0.718868 0.695146 124.346 396.573)" stroke="#651F54"/>
<line y1="-0.5" x2="484.274" y2="-0.5" transform="matrix(-0.718868 -0.695146 -0.718868 0.695146 129.703 391.392)" stroke="#682256"/>
<line y1="-0.5" x2="484.274" y2="-0.5" transform="matrix(-0.718868 -0.695146 -0.718868 0.695146 135.06 386.211)" stroke="#6A2559"/>
<line y1="-0.5" x2="484.274" y2="-0.5" transform="matrix(-0.718868 -0.695146 -0.718868 0.695146 140.418 381.031)" stroke="#6C285C"/>
<line y1="-0.5" x2="484.274" y2="-0.5" transform="matrix(-0.718868 -0.695146 -0.718868 0.695146 145.775 375.85)" stroke="#6F2B5E"/>
<line y1="-0.5" x2="484.274" y2="-0.5" transform="matrix(-0.718868 -0.695146 -0.718868 0.695146 151.132 370.67)" stroke="#712E61"/>
<line y1="-0.5" x2="484.274" y2="-0.5" transform="matrix(-0.718868 -0.695146 -0.718868 0.695146 156.49 365.489)" stroke="#733263"/>
<line y1="-0.5" x2="484.274" y2="-0.5" transform="matrix(-0.718868 -0.695146 -0.718868 0.695146 161.847 360.309)" stroke="#763566"/>
<line y1="-0.5" x2="484.274" y2="-0.5" transform="matrix(-0.718868 -0.695146 -0.718868 0.695146 167.205 355.128)" stroke="#783868"/>
<line y1="-0.5" x2="484.274" y2="-0.5" transform="matrix(-0.718868 -0.695146 -0.718868 0.695146 172.562 349.948)" stroke="#7A3B6B"/>
<line y1="-0.5" x2="484.274" y2="-0.5" transform="matrix(-0.718868 -0.695146 -0.718868 0.695146 177.919 344.767)" stroke="#7D3E6D"/>
<line y1="-0.5" x2="484.274" y2="-0.5" transform="matrix(-0.718868 -0.695146 -0.718868 0.695146 183.277 339.586)" stroke="#7F4170"/>
<line y1="-0.5" x2="484.274" y2="-0.5" transform="matrix(-0.718868 -0.695146 -0.718868 0.695146 188.634 334.406)" stroke="#824572"/>
<line y1="-0.5" x2="484.274" y2="-0.5" transform="matrix(-0.718868 -0.695146 -0.718868 0.695146 193.991 329.225)" stroke="#844875"/>
<line y1="-0.5" x2="484.274" y2="-0.5" transform="matrix(-0.718868 -0.695146 -0.718868 0.695146 199.349 324.045)" stroke="#864B78"/>
<line y1="-0.5" x2="484.274" y2="-0.5" transform="matrix(-0.718868 -0.695146 -0.718868 0.695146 204.706 318.864)" stroke="#894E7A"/>
<line y1="-0.5" x2="484.274" y2="-0.5" transform="matrix(-0.718868 -0.695146 -0.718868 0.695146 210.063 313.684)" stroke="#8B517D"/>
<line y1="-0.5" x2="484.274" y2="-0.5" transform="matrix(-0.718868 -0.695146 -0.718868 0.695146 215.421 308.503)" stroke="#8D547F"/>
<line y1="-0.5" x2="484.274" y2="-0.5" transform="matrix(-0.718868 -0.695146 -0.718868 0.695146 220.778 303.323)" stroke="#905882"/>
<line y1="-0.5" x2="484.274" y2="-0.5" transform="matrix(-0.718868 -0.695146 -0.718868 0.695146 226.135 298.142)" stroke="#925B84"/>
<line y1="-0.5" x2="484.274" y2="-0.5" transform="matrix(-0.718868 -0.695146 -0.718868 0.695146 231.493 292.961)" stroke="#945E87"/>
<line y1="-0.5" x2="484.274" y2="-0.5" transform="matrix(-0.718868 -0.695146 -0.718868 0.695146 236.85 287.781)" stroke="#976189"/>
<line y1="-0.5" x2="484.274" y2="-0.5" transform="matrix(-0.718868 -0.695146 -0.718868 0.695146 242.208 282.6)" stroke="#99648C"/>
<line y1="-0.5" x2="484.274" y2="-0.5" transform="matrix(-0.718868 -0.695146 -0.718868 0.695146 247.565 277.42)" stroke="#9C688F"/>
<line y1="-0.5" x2="484.274" y2="-0.5" transform="matrix(-0.718868 -0.695146 -0.718868 0.695146 252.922 272.239)" stroke="#9E6B91"/>
<line y1="-0.5" x2="484.274" y2="-0.5" transform="matrix(-0.718868 -0.695146 -0.718868 0.695146 258.28 267.058)" stroke="#A06E94"/>
<line y1="-0.5" x2="484.274" y2="-0.5" transform="matrix(-0.718868 -0.695146 -0.718868 0.695146 263.637 261.878)" stroke="#A37196"/>
<line y1="-0.5" x2="484.274" y2="-0.5" transform="matrix(-0.718868 -0.695146 -0.718868 0.695146 268.994 256.697)" stroke="#A57499"/>
<line y1="-0.5" x2="484.274" y2="-0.5" transform="matrix(-0.718868 -0.695146 -0.718868 0.695146 274.352 251.517)" stroke="#A7779B"/>
<line y1="-0.5" x2="484.274" y2="-0.5" transform="matrix(-0.718868 -0.695146 -0.718868 0.695146 279.709 246.336)" stroke="#AA7B9E"/>
<line y1="-0.5" x2="484.274" y2="-0.5" transform="matrix(-0.718868 -0.695146 -0.718868 0.695146 285.066 241.156)" stroke="#AC7EA0"/>
<line y1="-0.5" x2="484.274" y2="-0.5" transform="matrix(-0.718868 -0.695146 -0.718868 0.695146 290.424 235.975)" stroke="#AE81A3"/>
<line y1="-0.5" x2="484.274" y2="-0.5" transform="matrix(-0.718868 -0.695146 -0.718868 0.695146 295.781 230.795)" stroke="#B184A5"/>
<line y1="-0.5" x2="484.274" y2="-0.5" transform="matrix(-0.718868 -0.695146 -0.718868 0.695146 301.138 225.614)" stroke="#B387A8"/>
<line y1="-0.5" x2="484.274" y2="-0.5" transform="matrix(-0.718868 -0.695146 -0.718868 0.695146 306.496 220.433)" stroke="#B58AAB"/>
<line y1="-0.5" x2="484.274" y2="-0.5" transform="matrix(-0.718868 -0.695146 -0.718868 0.695146 311.853 215.253)" stroke="#B88EAD"/>
<line y1="-0.5" x2="484.274" y2="-0.5" transform="matrix(-0.718868 -0.695146 -0.718868 0.695146 317.21 210.072)" stroke="#BA91B0"/>
<line y1="-0.5" x2="484.274" y2="-0.5" transform="matrix(-0.718868 -0.695146 -0.718868 0.695146 322.568 204.892)" stroke="#BD94B2"/>
<line y1="-0.5" x2="484.274" y2="-0.5" transform="matrix(-0.718868 -0.695146 -0.718868 0.695146 327.925 199.711)" stroke="#BF97B5"/>
<line y1="-0.5" x2="484.274" y2="-0.5" transform="matrix(-0.718868 -0.695146 -0.718868 0.695146 333.282 194.531)" stroke="#C19AB7"/>
<line y1="-0.5" x2="484.274" y2="-0.5" transform="matrix(-0.718868 -0.695146 -0.718868 0.695146 338.64 189.35)" stroke="#C49DBA"/>
<line y1="-0.5" x2="484.274" y2="-0.5" transform="matrix(-0.718868 -0.695146 -0.718868 0.695146 343.997 184.169)" stroke="#C6A1BC"/>
<line y1="-0.5" x2="484.274" y2="-0.5" transform="matrix(-0.718868 -0.695146 -0.718868 0.695146 349.354 178.989)" stroke="#C8A4BF"/>
<line y1="-0.5" x2="484.274" y2="-0.5" transform="matrix(-0.718868 -0.695146 -0.718868 0.695146 354.712 173.808)" stroke="#CBA7C1"/>
<line y1="-0.5" x2="484.274" y2="-0.5" transform="matrix(-0.718868 -0.695146 -0.718868 0.695146 360.069 168.628)" stroke="#CDAAC4"/>
<line y1="-0.5" x2="484.274" y2="-0.5" transform="matrix(-0.718868 -0.695146 -0.718868 0.695146 365.427 163.447)" stroke="#CFADC7"/>
<line y1="-0.5" x2="484.274" y2="-0.5" transform="matrix(-0.718868 -0.695146 -0.718868 0.695146 370.784 158.267)" stroke="#D2B0C9"/>
<line y1="-0.5" x2="484.274" y2="-0.5" transform="matrix(-0.718868 -0.695146 -0.718868 0.695146 376.141 153.086)" stroke="#D4B4CC"/>
<line y1="-0.5" x2="484.274" y2="-0.5" transform="matrix(-0.718868 -0.695146 -0.718868 0.695146 381.499 147.906)" stroke="#D6B7CE"/>
<line y1="-0.5" x2="484.274" y2="-0.5" transform="matrix(-0.718868 -0.695146 -0.718868 0.695146 386.856 142.725)" stroke="#D9BAD1"/>
<line y1="-0.5" x2="484.274" y2="-0.5" transform="matrix(-0.718868 -0.695146 -0.718868 0.695146 392.213 137.544)" stroke="#DBBDD3"/>
<line y1="-0.5" x2="484.274" y2="-0.5" transform="matrix(-0.718868 -0.695146 -0.718868 0.695146 397.571 132.364)" stroke="#DEC0D6"/>
<line y1="-0.5" x2="484.274" y2="-0.5" transform="matrix(-0.718868 -0.695146 -0.718868 0.695146 402.928 127.183)" stroke="#E0C3D8"/>
<line y1="-0.5" x2="484.274" y2="-0.5" transform="matrix(-0.718868 -0.695146 -0.718868 0.695146 408.285 122.003)" stroke="#E2C7DB"/>
<line y1="-0.5" x2="484.274" y2="-0.5" transform="matrix(-0.718868 -0.695146 -0.718868 0.695146 413.643 116.822)" stroke="#E5CADD"/>
<line y1="-0.5" x2="484.274" y2="-0.5" transform="matrix(-0.718868 -0.695146 -0.718868 0.695146 419 111.642)" stroke="#E7CDE0"/>
</g>
<defs>
<clipPath id="clip0">
<rect width="190" height="190" rx="95" transform="matrix(-1 0 0 1 190 0)" fill="white"/>
</clipPath>
</defs>
</svg>
