<svg width="141" height="141" viewBox="0 0 141 141" fill="none" xmlns="http://www.w3.org/2000/svg">
<circle cx="78.0002" cy="3" r="2.5" stroke="#FCE06F"/>
<circle cx="78.0002" cy="33" r="2.5" stroke="#FCE06F"/>
<circle cx="78.0002" cy="18" r="2.5" stroke="#FCE06F"/>
<circle cx="78.0002" cy="48" r="2.5" stroke="#FCE06F"/>
<circle cx="78.0002" cy="63" r="2.5" stroke="#FCE06F"/>
<circle cx="93.0002" cy="3" r="2.5" stroke="#FCE06F"/>
<circle cx="93.0002" cy="33" r="2.5" stroke="#FCE06F"/>
<circle cx="93.0002" cy="18" r="2.5" stroke="#FCE06F"/>
<circle cx="93.0002" cy="48" r="2.5" stroke="#FCE06F"/>
<circle cx="93.0002" cy="63" r="2.5" stroke="#FCE06F"/>
<circle cx="123" cy="3" r="2.5" stroke="#FCE06F"/>
<circle cx="123" cy="33" r="2.5" stroke="#FCE06F"/>
<circle cx="123" cy="18" r="2.5" stroke="#FCE06F"/>
<circle cx="123" cy="48" r="2.5" stroke="#FCE06F"/>
<circle cx="123" cy="63" r="2.5" stroke="#FCE06F"/>
<circle cx="108" cy="3" r="2.5" stroke="#FCE06F"/>
<circle cx="108" cy="33" r="2.5" stroke="#FCE06F"/>
<circle cx="108" cy="18" r="2.5" stroke="#FCE06F"/>
<circle cx="108" cy="48" r="2.5" stroke="#FCE06F"/>
<circle cx="108" cy="63" r="2.5" stroke="#FCE06F"/>
<circle cx="138" cy="3" r="2.5" stroke="#FCE06F"/>
<circle cx="138" cy="33" r="2.5" stroke="#FCE06F"/>
<circle cx="138" cy="18" r="2.5" stroke="#FCE06F"/>
<circle cx="138" cy="48" r="2.5" stroke="#FCE06F"/>
<circle cx="138" cy="63" r="2.5" stroke="#FCE06F"/>
<circle cx="3.00024" cy="3" r="2.5" stroke="#FCE06F"/>
<circle cx="3.00024" cy="33" r="2.5" stroke="#FCE06F"/>
<circle cx="3.00024" cy="18" r="2.5" stroke="#FCE06F"/>
<circle cx="3.00024" cy="48" r="2.5" stroke="#FCE06F"/>
<circle cx="3.00024" cy="63" r="2.5" stroke="#FCE06F"/>
<circle cx="18.0002" cy="3" r="2.5" stroke="#FCE06F"/>
<circle cx="18.0002" cy="33" r="2.5" stroke="#FCE06F"/>
<circle cx="18.0002" cy="18" r="2.5" stroke="#FCE06F"/>
<circle cx="18.0002" cy="48" r="2.5" stroke="#FCE06F"/>
<circle cx="18.0002" cy="63" r="2.5" stroke="#FCE06F"/>
<circle cx="48.0002" cy="3" r="2.5" stroke="#FCE06F"/>
<circle cx="48.0002" cy="33" r="2.5" stroke="#FCE06F"/>
<circle cx="48.0002" cy="18" r="2.5" stroke="#FCE06F"/>
<circle cx="48.0002" cy="48" r="2.5" stroke="#FCE06F"/>
<circle cx="48.0002" cy="63" r="2.5" stroke="#FCE06F"/>
<circle cx="33.0002" cy="3" r="2.5" stroke="#FCE06F"/>
<circle cx="33.0002" cy="33" r="2.5" stroke="#FCE06F"/>
<circle cx="33.0002" cy="18" r="2.5" stroke="#FCE06F"/>
<circle cx="33.0002" cy="48" r="2.5" stroke="#FCE06F"/>
<circle cx="33.0002" cy="63" r="2.5" stroke="#FCE06F"/>
<circle cx="63.0002" cy="3" r="2.5" stroke="#FCE06F"/>
<circle cx="63.0002" cy="33" r="2.5" stroke="#FCE06F"/>
<circle cx="63.0002" cy="18" r="2.5" stroke="#FCE06F"/>
<circle cx="63.0002" cy="48" r="2.5" stroke="#FCE06F"/>
<circle cx="63.0002" cy="63" r="2.5" stroke="#FCE06F"/>
<circle cx="78.0002" cy="78" r="2.5" stroke="#FCE06F"/>
<circle cx="78.0002" cy="108" r="2.5" stroke="#FCE06F"/>
<circle cx="78.0002" cy="93" r="2.5" stroke="#FCE06F"/>
<circle cx="78.0002" cy="123" r="2.5" stroke="#FCE06F"/>
<circle cx="78.0002" cy="138" r="2.5" stroke="#FCE06F"/>
<circle cx="93.0002" cy="78" r="2.5" stroke="#FCE06F"/>
<circle cx="93.0002" cy="108" r="2.5" stroke="#FCE06F"/>
<circle cx="93.0002" cy="93" r="2.5" stroke="#FCE06F"/>
<circle cx="93.0002" cy="123" r="2.5" stroke="#FCE06F"/>
<circle cx="93.0002" cy="138" r="2.5" stroke="#FCE06F"/>
<circle cx="123" cy="78" r="2.5" stroke="#FCE06F"/>
<circle cx="123" cy="108" r="2.5" stroke="#FCE06F"/>
<circle cx="123" cy="93" r="2.5" stroke="#FCE06F"/>
<circle cx="123" cy="123" r="2.5" stroke="#FCE06F"/>
<circle cx="123" cy="138" r="2.5" stroke="#FCE06F"/>
<circle cx="108" cy="78" r="2.5" stroke="#FCE06F"/>
<circle cx="108" cy="108" r="2.5" stroke="#FCE06F"/>
<circle cx="108" cy="93" r="2.5" stroke="#FCE06F"/>
<circle cx="108" cy="123" r="2.5" stroke="#FCE06F"/>
<circle cx="108" cy="138" r="2.5" stroke="#FCE06F"/>
<circle cx="138" cy="78" r="2.5" stroke="#FCE06F"/>
<circle cx="138" cy="108" r="2.5" stroke="#FCE06F"/>
<circle cx="138" cy="93" r="2.5" stroke="#FCE06F"/>
<circle cx="138" cy="123" r="2.5" stroke="#FCE06F"/>
<circle cx="138" cy="138" r="2.5" stroke="#FCE06F"/>
<circle cx="3.00024" cy="78" r="2.5" stroke="#FCE06F"/>
<circle cx="3.00024" cy="108" r="2.5" stroke="#FCE06F"/>
<circle cx="3.00024" cy="93" r="2.5" stroke="#FCE06F"/>
<circle cx="3.00024" cy="123" r="2.5" stroke="#FCE06F"/>
<circle cx="3.00024" cy="138" r="2.5" stroke="#FCE06F"/>
<circle cx="18.0002" cy="78" r="2.5" stroke="#FCE06F"/>
<circle cx="18.0002" cy="108" r="2.5" stroke="#FCE06F"/>
<circle cx="18.0002" cy="93" r="2.5" stroke="#FCE06F"/>
<circle cx="18.0002" cy="123" r="2.5" stroke="#FCE06F"/>
<circle cx="18.0002" cy="138" r="2.5" stroke="#FCE06F"/>
<circle cx="48.0002" cy="78" r="2.5" stroke="#FCE06F"/>
<circle cx="48.0002" cy="108" r="2.5" stroke="#FCE06F"/>
<circle cx="48.0002" cy="93" r="2.5" stroke="#FCE06F"/>
<circle cx="48.0002" cy="123" r="2.5" stroke="#FCE06F"/>
<circle cx="48.0002" cy="138" r="2.5" stroke="#FCE06F"/>
<circle cx="33.0002" cy="78" r="2.5" stroke="#FCE06F"/>
<circle cx="33.0002" cy="108" r="2.5" stroke="#FCE06F"/>
<circle cx="33.0002" cy="93" r="2.5" stroke="#FCE06F"/>
<circle cx="33.0002" cy="123" r="2.5" stroke="#FCE06F"/>
<circle cx="33.0002" cy="138" r="2.5" stroke="#FCE06F"/>
<circle cx="63.0002" cy="78" r="2.5" stroke="#FCE06F"/>
<circle cx="63.0002" cy="108" r="2.5" stroke="#FCE06F"/>
<circle cx="63.0002" cy="93" r="2.5" stroke="#FCE06F"/>
<circle cx="63.0002" cy="123" r="2.5" stroke="#FCE06F"/>
<circle cx="63.0002" cy="138" r="2.5" stroke="#FCE06F"/>
</svg>
