<svg width="25" height="25" viewBox="0 0 25 25" fill="none" xmlns="http://www.w3.org/2000/svg">
<path d="M12.4999 0.567627C5.59712 0.567627 -0.000244141 6.16401 -0.000244141 13.0677C-0.000244141 18.5906 3.5814 23.2762 8.5481 24.9291C9.1728 25.0448 9.4022 24.6579 9.4022 24.3277C9.4022 24.0296 9.39048 23.045 9.38521 22.0005C5.90767 22.7566 5.17388 20.5256 5.17388 20.5256C4.60522 19.0808 3.78589 18.6965 3.78589 18.6965C2.65181 17.9207 3.87144 17.9368 3.87144 17.9368C5.12661 18.0249 5.78755 19.2249 5.78755 19.2249C6.90249 21.1358 8.71187 20.5833 9.42515 20.2639C9.53735 19.4561 9.86128 18.9045 10.2188 18.5924C7.44233 18.2764 4.52368 17.2045 4.52368 12.4149C4.52368 11.0501 5.01196 9.93501 5.81157 9.05962C5.68179 8.74477 5.25395 7.47349 5.93267 5.75161C5.93267 5.75161 6.98237 5.41567 9.37114 7.03296C10.3682 6.75601 11.4375 6.61714 12.4999 6.61235C13.5622 6.61714 14.6324 6.75591 15.6313 7.03296C18.0171 5.41577 19.0654 5.75171 19.0654 5.75171C19.7458 7.47339 19.3177 8.74487 19.1879 9.05962C19.9894 9.93501 20.4744 11.0501 20.4744 12.4149C20.4744 17.216 17.5501 18.2731 14.7667 18.5826C15.215 18.9705 15.6145 19.7312 15.6145 20.8974C15.6145 22.5699 15.6 23.916 15.6 24.3277C15.6 24.6604 15.825 25.0501 16.4586 24.9273C21.4226 23.2727 24.9998 18.5888 24.9998 13.0678C24.9998 6.16401 19.4032 0.567627 12.4999 0.567627ZM4.68149 18.3743C4.65396 18.4364 4.5562 18.455 4.46724 18.4124C4.37651 18.3716 4.32563 18.287 4.35493 18.2247C4.38188 18.1607 4.47983 18.1428 4.57026 18.1857C4.66108 18.2265 4.71284 18.312 4.68149 18.3743ZM5.29634 18.9229C5.23677 18.9782 5.12017 18.9525 5.04106 18.8652C4.95933 18.7781 4.94399 18.6615 5.00444 18.6054C5.06597 18.5501 5.17896 18.576 5.26089 18.6631C5.34272 18.7513 5.35854 18.867 5.29634 18.9229ZM5.71821 19.6249C5.64155 19.6781 5.51636 19.6282 5.43892 19.517C5.36235 19.4059 5.36235 19.2726 5.44058 19.2192C5.51821 19.1658 5.64155 19.2138 5.71997 19.3242C5.79634 19.4372 5.79634 19.5705 5.71812 19.625L5.71821 19.6249ZM6.43149 20.4378C6.36304 20.5134 6.21704 20.4931 6.11021 20.39C6.00093 20.2892 5.97056 20.1462 6.03931 20.0707C6.10864 19.9949 6.25542 20.0162 6.36304 20.1185C6.47144 20.2191 6.50464 20.3631 6.43149 20.4378ZM7.35356 20.7123C7.32329 20.8102 7.18267 20.8547 7.04116 20.8131C6.89976 20.7703 6.80728 20.6556 6.83579 20.5567C6.86519 20.4581 7.0064 20.4118 7.14897 20.4563C7.29019 20.4989 7.38296 20.6127 7.35356 20.7124V20.7123ZM8.40278 20.8288C8.4063 20.9318 8.28628 21.0172 8.13765 21.0192C7.98823 21.0225 7.86724 20.9391 7.86558 20.8375C7.86558 20.7335 7.98296 20.6489 8.13247 20.6463C8.2811 20.6434 8.40278 20.7262 8.40278 20.8288ZM9.43355 20.7892C9.45132 20.8898 9.34809 20.9931 9.20044 21.0207C9.05542 21.0471 8.92105 20.985 8.90259 20.8853C8.88462 20.7822 8.98979 20.6789 9.13462 20.6522C9.28247 20.6265 9.4147 20.687 9.43355 20.7892Z" fill="#FCE06F"/>
</svg>
