<svg width="25" height="26" viewBox="0 0 25 26" fill="none" xmlns="http://www.w3.org/2000/svg">
<path d="M12.4998 2.897C15.8374 2.897 16.2327 2.90969 17.5507 2.96975C18.7695 3.02541 19.4314 3.22903 19.8719 3.40022C20.4553 3.62698 20.8717 3.89788 21.3091 4.33528C21.7466 4.77268 22.0174 5.18909 22.2442 5.77249C22.4154 6.21301 22.619 6.87493 22.6747 8.09358C22.7347 9.41174 22.7474 9.80706 22.7474 13.1447C22.7474 16.4823 22.7347 16.8777 22.6747 18.1957C22.619 19.4145 22.4154 20.0763 22.2442 20.5168C22.0174 21.1002 21.7465 21.5167 21.3091 21.9541C20.8717 22.3915 20.4553 22.6624 19.8719 22.8891C19.4314 23.0603 18.7695 23.264 17.5507 23.3196C16.2329 23.3797 15.8375 23.3924 12.4998 23.3924C9.16187 23.3924 8.76655 23.3797 7.44868 23.3196C6.22993 23.2639 5.56812 23.0603 5.12759 22.8891C4.54419 22.6624 4.12769 22.3915 3.69028 21.9541C3.25288 21.5166 2.98198 21.1002 2.75532 20.5168C2.58413 20.0764 2.38042 19.4145 2.32485 18.1957C2.2647 16.8777 2.252 16.4823 2.252 13.1447C2.252 9.80706 2.2647 9.41174 2.32485 8.09368C2.38052 6.87493 2.58413 6.21301 2.75532 5.77249C2.98198 5.18909 3.25288 4.77268 3.69028 4.33528C4.12778 3.89778 4.54419 3.62698 5.12759 3.40022C5.56802 3.22903 6.22993 3.02541 7.44868 2.96975C8.76675 2.90969 9.16206 2.897 12.4998 2.897ZM12.4998 0.644653C9.10493 0.644653 8.67925 0.659009 7.34604 0.719849C6.01548 0.780591 5.10679 0.991919 4.31177 1.3009C3.4897 1.62034 2.79263 2.04778 2.09771 2.7427C1.40278 3.43762 0.975439 4.13469 0.656006 4.95667C0.346924 5.75178 0.135693 6.66047 0.0749512 7.99094C0.0141113 9.32415 -0.000244141 9.74983 -0.000244141 13.1447C-0.000244141 16.5395 0.0141113 16.9652 0.0749512 18.2984C0.135693 19.6289 0.346924 20.5376 0.656006 21.3326C0.975342 22.1546 1.40278 22.8518 2.09771 23.5467C2.79263 24.2416 3.4897 24.669 4.31177 24.9884C5.10688 25.2975 6.01548 25.5087 7.34595 25.5695C8.67925 25.6303 9.10493 25.6447 12.4998 25.6447C15.8946 25.6447 16.3203 25.6303 17.6535 25.5695C18.9839 25.5087 19.8926 25.2975 20.6876 24.9884C21.5097 24.6691 22.2068 24.2416 22.9017 23.5467C23.5966 22.8518 24.0241 22.1547 24.3435 21.3326C24.6525 20.5375 24.8638 19.6289 24.9246 18.2985C24.9854 16.9652 24.9998 16.5395 24.9998 13.1447C24.9998 9.74983 24.9854 9.32415 24.9246 7.99094C24.8638 6.66047 24.6525 5.75178 24.3435 4.95676C24.0241 4.13469 23.5966 3.43762 22.9017 2.7427C22.2068 2.04778 21.5097 1.62024 20.6877 1.3009C19.8926 0.991919 18.9839 0.780591 17.6535 0.719849C16.3203 0.659009 15.8946 0.644653 12.4998 0.644653ZM12.4998 6.72571C8.95464 6.72571 6.08081 9.59973 6.08081 13.1447C6.08081 16.6898 8.95464 19.5636 12.4998 19.5636C16.0448 19.5636 18.9187 16.6898 18.9187 13.1447C18.9187 9.59963 16.0448 6.72571 12.4998 6.72571ZM12.4998 17.3114C10.1986 17.3114 8.33306 15.4458 8.33306 13.1447C8.33306 10.8435 10.1986 8.97795 12.4998 8.97795C14.8009 8.97795 16.6665 10.8435 16.6665 13.1447C16.6665 15.4458 14.8009 17.3114 12.4998 17.3114ZM20.6722 6.47209C20.6722 7.30061 20.0007 7.97209 19.1722 7.97209C18.3438 7.97209 17.6722 7.30061 17.6722 6.47209C17.6722 5.64368 18.3438 4.97209 19.1722 4.97209C20.0007 4.97209 20.6722 5.64368 20.6722 6.47209Z" fill="#FCE06F"/>
</svg>
