<svg width="60" height="41" viewBox="0 0 60 41" fill="none" xmlns="http://www.w3.org/2000/svg">
<path d="M25.5916 29.1478C25.5916 29.1478 29.6755 34.2203 24.6552 38.544C19.635 42.8676 14.6142 36.8635 14.6142 36.8635L2.34714 24.5188C2.34714 24.5188 -2.5505 20.638 1.91748 15.9323L11.0198 6.83264C10.9975 6.88129 8.52417 12.2882 12.1808 15.5961L25.5916 29.1478Z" fill="url(#paint0_linear)"/>
<path opacity="0.8" d="M24.431 1.67048C29.4134 5.98238 25.3604 11.0412 25.3604 11.0412L12.0512 24.5556C8.42218 27.8545 10.9764 33.1457 10.9996 33.1943L1.86566 24.2206C-2.56799 19.5277 2.29235 15.6577 2.29235 15.6577L14.4666 3.34659C14.4666 3.34659 19.4486 -2.64134 24.431 1.67048Z" fill="url(#paint1_linear)"/>
<path d="M33.4644 11.071C33.4644 11.071 29.3804 5.99881 34.4009 1.67484C39.4215 -2.64913 44.4417 3.35589 44.4417 3.35589L56.7087 15.7003C56.7087 15.7003 61.6064 19.581 57.1388 24.2863L48.036 33.3862C48.0584 33.3376 50.5317 27.9306 46.875 24.6227L33.4644 11.071Z" fill="url(#paint2_linear)"/>
<path opacity="0.8" d="M34.6255 38.5478C29.6431 34.2359 33.696 29.1775 33.696 29.1775L47.0048 15.6627C50.6336 12.3639 48.0798 7.07224 48.0565 7.0238L57.1908 15.9981C61.6248 20.6907 56.7642 24.5607 56.7642 24.5607L44.5899 36.8716C44.5899 36.8716 39.6075 42.8595 34.6255 38.5478Z" fill="url(#paint3_linear)"/>
<defs>
<linearGradient id="paint0_linear" x1="6.80719" y1="17.1261" x2="30.7652" y2="36.3553" gradientUnits="userSpaceOnUse">
<stop offset="0.09" stop-color="#066C78"/>
<stop offset="0.25" stop-color="#247A86"/>
<stop offset="0.412" stop-color="#247A86"/>
<stop offset="0.575" stop-color="#4798A2"/>
<stop offset="0.738" stop-color="#58A7B1"/>
<stop offset="0.9" stop-color="#6AB7C1"/>
</linearGradient>
<linearGradient id="paint1_linear" x1="3.1391e-05" y1="16.6519" x2="26.9149" y2="16.6519" gradientUnits="userSpaceOnUse">
<stop offset="0.09" stop-color="#6AB7C1"/>
<stop offset="0.253" stop-color="#58A7B1"/>
<stop offset="0.415" stop-color="#4798A2"/>
<stop offset="0.578" stop-color="#358994"/>
<stop offset="0.74" stop-color="#247A86"/>
<stop offset="0.9" stop-color="#066C78"/>
</linearGradient>
<linearGradient id="paint2_linear" x1="52.2488" y1="23.0929" x2="28.2908" y2="3.86375" gradientUnits="userSpaceOnUse">
<stop offset="0.09" stop-color="#C41E62"/>
<stop offset="0.25" stop-color="#D02D71"/>
<stop offset="0.412" stop-color="#E5508F"/>
<stop offset="0.575" stop-color="#E5508F"/>
<stop offset="0.738" stop-color="#F0629E"/>
<stop offset="0.9" stop-color="#F171AB"/>
</linearGradient>
<linearGradient id="paint3_linear" x1="57.4099" y1="23.5663" x2="30.4951" y2="23.5663" gradientUnits="userSpaceOnUse">
<stop offset="0.09" stop-color="#F171AB"/>
<stop offset="0.252" stop-color="#F0629E"/>
<stop offset="0.415" stop-color="#E5508F"/>
<stop offset="0.578" stop-color="#DC4080"/>
<stop offset="0.74" stop-color="#D02D71"/>
<stop offset="0.9" stop-color="#C41E62"/>
</linearGradient>
</defs>
</svg>
