<svg width="25" height="21" viewBox="0 0 25 21" fill="none" xmlns="http://www.w3.org/2000/svg">
<path d="M24.9998 3.04973C24.0798 3.45764 23.0914 3.73333 22.0539 3.85735C23.1129 3.22258 23.9261 2.21741 24.309 1.01975C23.3022 1.6172 22.2007 2.03814 21.0521 2.26438C20.1165 1.2676 18.7835 0.644653 17.3083 0.644653C14.4756 0.644653 12.1791 2.94114 12.1791 5.77356C12.1791 6.17561 12.2245 6.56702 12.3119 6.9425C8.04917 6.72854 4.26987 4.68665 1.74009 1.58352C1.29868 2.34104 1.04575 3.22219 1.04575 4.16204C1.04575 5.94153 1.95132 7.51135 3.32749 8.43118C2.51299 8.40567 1.71641 8.18568 1.00425 7.78958C1.00396 7.81106 1.00396 7.83254 1.00396 7.85413C1.00396 10.3392 2.77192 12.4122 5.11821 12.8834C4.36293 13.0888 3.57068 13.1189 2.802 12.9713C3.45464 15.009 5.34888 16.4918 7.59321 16.5333C5.83784 17.9089 3.62622 18.7289 1.22329 18.7289C0.809229 18.7289 0.401025 18.7046 -0.000244141 18.6572C2.26958 20.1125 4.96558 20.9616 7.86206 20.9616C17.2963 20.9616 22.4552 13.1461 22.4552 6.36838C22.4552 6.14592 22.4503 5.92473 22.4404 5.70481C23.4445 4.97892 24.3112 4.07982 24.9998 3.04973Z" fill="#FCE06F"/>
</svg>
