<svg width="52" height="78" viewBox="0 0 52 78" fill="none" xmlns="http://www.w3.org/2000/svg">
<path d="M12.581 0H25.1114V25.0613H12.5811C-3.94365 24.4153 -4.11054 0.67845 12.581 0ZM12.581 51.1944H25.1114V26.1332H12.5811C-4.11039 26.8116 -3.9435 50.5484 12.5811 51.1944H12.581ZM38.7141 0H26.1833V25.0613H38.7141C55.4612 24.165 55.2524 0.511556 38.7141 0ZM25.1114 64.7971V52.2663H12.5811C2.35572 52.2663 -4.11039 64.2549 3.0011 72.8657C9.78136 81.4005 25.1116 77.1454 25.1116 64.7971H25.1114ZM51.2703 38.6638C51.2703 29.0338 40.7736 22.9826 32.4218 27.7976C24.07 32.6126 24.0699 44.7152 32.4218 49.5302C40.7738 54.3452 51.2703 48.2938 51.2703 38.6638Z" fill="#CDF2F2"/>
</svg>
