<svg width="80" height="78" viewBox="0 0 80 78" fill="none" xmlns="http://www.w3.org/2000/svg">
<path fill-rule="evenodd" clip-rule="evenodd" d="M39.643 0C17.7402 0 0 17.7402 0 39.643C0 57.185 11.3478 72.0016 27.1059 77.2543C29.088 77.6012 29.8313 76.4119 29.8313 75.3712C29.8313 74.4297 29.7818 71.3078 29.7818 67.9877C19.8215 69.8212 17.2447 65.5596 16.4518 63.3297C16.0059 62.1899 14.0733 58.6716 12.3884 57.7301C11.0009 56.9868 9.01878 55.1533 12.3389 55.1038C15.4608 55.0542 17.6907 57.9779 18.434 59.1672C22.0019 65.1632 27.7005 63.4783 29.98 62.4377C30.3269 59.8609 31.3675 58.1265 32.5072 57.1355C23.6867 56.1444 14.4697 52.7252 14.4697 37.5617C14.4697 33.2506 16.0059 29.6827 18.5331 26.9077C18.1367 25.9166 16.7492 21.8532 18.9295 16.4023C18.9295 16.4023 22.2496 15.3617 29.8313 20.4657C33.0028 19.5737 36.3724 19.1277 39.7421 19.1277C43.1117 19.1277 46.4814 19.5737 49.6528 20.4657C57.2346 15.3121 60.5547 16.4023 60.5547 16.4023C62.735 21.8532 61.3475 25.9166 60.9511 26.9077C63.4783 29.6827 65.0145 33.201 65.0145 37.5617C65.0145 52.7747 55.748 56.1444 46.9274 57.1355C48.3644 58.3743 49.6033 60.7529 49.6033 64.4694C49.6033 69.7717 49.5537 74.0333 49.5537 75.3712C49.5537 76.4119 50.297 77.6507 52.2792 77.2543C60.1489 74.5973 66.9873 69.5394 71.832 62.7924C76.6766 56.0454 79.2836 47.9491 79.286 39.643C79.286 17.7402 61.5457 0 39.643 0Z" fill="#CDF2F2"/>
</svg>
