<svg width="59" height="78" viewBox="0 0 59 78" fill="none" xmlns="http://www.w3.org/2000/svg">
<path d="M7.36267 0.247437H10.8491V3.69199H14.0391V0.247437H17.5256V10.6745H14.0391V7.18488H10.8491V10.6745H7.36589V0.247437H7.36267Z" fill="#CDF2F2"/>
<path d="M22.1076 3.70488H19.04V0.247437H28.6648V3.70488H25.594V10.6745H22.1076V3.70488Z" fill="#CDF2F2"/>
<path d="M30.1921 0.247437H33.8268L36.063 3.9111L38.296 0.247437H41.9307V10.6745H38.4604V5.5061L36.063 9.21488H36.0018L33.6012 5.50933V10.6745H30.1921V0.247437V0.247437Z" fill="#CDF2F2"/>
<path d="M43.6642 0.247437H47.1539V7.22999H52.0517V10.6778H43.6642V0.247437V0.247437Z" fill="#CDF2F2"/>
<path fill-rule="evenodd" clip-rule="evenodd" d="M7.25313 71.3683L0.660461 15.4466H58.6605L52.0646 71.3619L29.6282 77.5807L7.25313 71.3683ZM20.5835 40.7572L19.9584 33.7327H46.2034L46.8156 26.8758H12.4667L14.3162 47.6173H38.0866L37.2907 56.5106L29.6411 58.5793H29.6347L21.998 56.5171L21.5082 51.049H14.6191L15.5794 61.8176L29.6282 65.7165L43.6997 61.8176L45.4139 42.6003L45.5815 40.7604H20.5835V40.7572Z" fill="#CDF2F2"/>
</svg>
