<svg width="83" height="62" viewBox="0 0 83 62" fill="none" xmlns="http://www.w3.org/2000/svg">
<path d="M38.9854 46.8728C38.9466 46.9503 38.9079 47.0123 38.9854 46.8728V46.8728ZM71.1607 35.6362C68.5621 35.6362 65.9997 36.2303 63.6697 37.3798C62.9077 35.8429 62.1198 34.4996 61.9907 33.4922C61.8357 32.3169 61.6678 31.6195 61.8486 30.2246C62.0294 28.8297 62.8431 26.8536 62.8302 26.7115C62.8173 26.5695 62.6494 25.8591 60.9832 25.8462C59.3171 25.8333 57.8835 26.1691 57.7156 26.6082C57.4208 27.4105 57.1918 28.2356 57.0311 29.0751C56.734 30.5862 53.7014 35.9849 51.9836 38.8005C51.4154 37.7027 50.9375 36.734 50.8342 35.9591C50.6792 34.7838 50.5113 34.0863 50.6921 32.6915C50.8729 31.2966 51.6866 29.3205 51.6737 29.1784C51.6608 29.0363 51.4929 28.326 49.8293 28.3131C48.1658 28.3001 46.7296 28.636 46.5617 29.0751C46.3938 29.5142 46.2129 30.5475 45.8771 31.542C45.5413 32.5365 41.4988 41.5257 40.4423 43.8635C39.8998 45.0517 39.4348 46.0075 39.099 46.6532C39.0474 46.7566 39.0086 46.8211 38.9828 46.8728C39.0215 46.8082 39.0474 46.7436 39.0474 46.7695C38.7632 47.3249 38.5953 47.6348 38.5953 47.6348V47.6477C38.3758 48.061 38.1304 48.4356 38.0141 48.4356C37.9366 48.4356 37.7687 47.3507 38.0529 45.8654C38.6599 42.7398 40.0935 37.8835 40.0806 37.7156C40.0677 37.6252 40.3518 36.7857 39.1378 36.3337C37.9625 35.9074 37.5362 36.6178 37.4329 36.6178C37.3296 36.6178 37.2521 36.8761 37.2521 36.8761C37.2521 36.8761 38.5566 31.3999 34.7465 31.3999C32.37 31.3999 29.0636 34.0088 27.4388 36.3724C26.4185 36.9278 24.2099 38.1289 21.8851 39.4076L19.2116 40.88C19.147 40.8154 19.0953 40.7508 19.0307 40.6862C14.407 35.7525 5.87232 32.2652 6.23396 25.6395C6.36312 23.2243 7.20263 16.8827 22.6471 9.18504C35.3044 2.88222 45.4225 4.61291 47.1661 8.46176C49.6718 13.9509 41.7545 24.1671 28.6116 25.6395C23.6003 26.1949 20.9681 24.2576 20.3094 23.5343C19.6249 22.7723 19.5215 22.7335 19.2632 22.8756C18.837 23.1081 19.1082 23.7797 19.2632 24.1801C19.6507 25.2004 21.2652 27.0086 24.0162 27.9127C26.4314 28.7005 32.3054 29.1397 39.4064 26.3886C47.3857 23.3147 53.5981 14.7517 51.7744 7.5835C49.9197 0.299094 37.841 -2.09029 26.4211 1.96521C19.6145 4.38043 12.2552 8.17762 6.9624 13.1243C0.672496 19.0138 -0.332339 24.1413 0.0809608 26.2853C1.55334 33.8926 12.0382 38.8522 16.2332 42.5202L15.652 42.8431C13.5468 43.8893 5.5546 48.074 3.55268 52.4911C1.29245 57.5024 3.92723 61.0929 5.65534 61.5837C11.0541 63.0819 16.5794 60.3825 19.55 55.9525C22.5205 51.5224 22.1589 45.7362 20.7899 43.1014C20.7769 43.0627 20.7511 43.0369 20.7382 42.9981C22.288 42.0802 23.8509 41.1846 25.4266 40.3117C24.9099 41.7066 24.5354 43.3856 24.3417 45.8137C24.1092 48.6552 25.2845 52.3361 26.8085 53.7827C27.4801 54.4155 28.2912 54.4284 28.7975 54.4284C30.5799 54.4284 31.3807 52.9561 32.2718 51.1995C33.3697 49.0555 34.3383 46.5628 34.3383 46.5628C34.3383 46.5628 33.1243 53.3048 36.4436 53.3048C37.6576 53.3048 38.8717 51.742 39.4142 50.9412V50.9541C39.4142 50.9541 39.44 50.9025 39.5046 50.7992C39.6337 50.6054 39.6983 50.4892 39.6983 50.4892V50.4504C40.1891 49.6109 41.2611 47.6865 42.8756 44.5092C44.9679 40.4021 46.9672 35.2746 46.9672 35.2746C47.161 36.4008 47.4296 37.5141 47.768 38.6068C48.1296 39.8338 48.8916 41.177 49.4987 42.4815C49.0079 43.1531 48.7108 43.5406 48.7108 43.5406C48.7108 43.5509 48.716 43.5587 48.7237 43.5664C48.3363 44.083 47.8971 44.6384 47.4451 45.1809C45.7945 47.144 43.8287 49.3913 43.5704 50.0371C43.2604 50.7992 43.3379 51.3674 43.9321 51.8066C44.3712 52.1424 45.1461 52.194 45.9598 52.1295C47.4451 52.0261 48.4913 51.6645 48.995 51.432C49.924 51.0991 50.8021 50.6384 51.6039 50.063C53.2184 48.8747 54.2 47.1699 54.1096 44.9225C54.0579 43.6826 53.6575 42.4427 53.1667 41.2803C53.3088 41.0737 53.4638 40.8541 53.6058 40.6346C55.2866 38.1267 56.801 35.5113 58.1392 32.8051C58.333 33.9314 58.599 35.0447 58.94 36.1373C59.25 37.1835 59.857 38.333 60.4124 39.4567C58.0101 41.4069 56.5248 43.6671 56.0107 45.1524C55.055 47.9035 55.8041 49.1434 57.2119 49.4275C57.8448 49.5567 58.7488 49.2596 59.4205 48.9755C60.4175 48.6422 61.3578 48.1592 62.2076 47.5418C63.8221 46.3536 65.3849 44.6875 65.279 42.4272C65.2402 41.4069 64.9561 40.3866 64.5815 39.405C66.6093 38.5526 69.2441 38.0876 72.6021 38.4751C79.7935 39.3146 81.2013 43.8092 80.9301 45.682C80.6589 47.5547 79.1478 48.6009 78.6441 48.9109C78.1403 49.2209 77.9854 49.3371 78.0241 49.5696C78.0887 49.9054 78.3212 49.8925 78.7474 49.815C79.3415 49.7117 82.5187 48.2909 82.6608 44.8166C82.8675 40.4253 78.6441 35.5949 71.1659 35.6336L71.1607 35.6362ZM15.7295 54.3251C13.353 56.9212 10.0234 57.9027 8.58977 57.0761C7.05281 56.1824 7.65984 52.3619 10.5891 49.5954C12.3715 47.9164 14.6704 46.3665 16.1945 45.4108C16.5432 45.2041 17.0469 44.8941 17.6669 44.5196C17.7172 44.4873 17.7689 44.4571 17.8218 44.4292C17.9381 44.3517 18.0672 44.2871 18.1964 44.2096C19.2658 48.1359 18.2351 51.5973 15.7295 54.3225V54.3251ZM33.0829 42.5202C32.2563 44.548 30.5153 49.7142 29.4537 49.443C28.5496 49.2105 27.9942 45.2713 29.2728 41.3966C29.9186 39.4463 31.2877 37.1215 32.1014 36.2174C33.4058 34.758 34.8395 34.293 35.1753 34.8742C35.6273 35.6362 33.5996 41.2545 33.0829 42.5202ZM47.4193 49.3655C47.0705 49.5463 46.7477 49.6626 46.5927 49.5722C46.4764 49.5076 46.7347 49.2622 46.7347 49.2622C46.7347 49.2622 48.53 47.3378 49.2404 46.4595C49.6537 45.9429 50.1315 45.3358 50.6482 44.6642C50.6482 44.7288 50.6611 44.7934 50.6611 44.8709C50.6456 47.1828 48.4241 48.7456 47.4167 49.3655H47.4193ZM58.475 46.847C58.2167 46.6662 58.2555 46.0591 59.1208 44.1734C59.4566 43.4372 60.2316 42.1973 61.5748 41.0091C61.7272 41.4586 61.8098 41.9287 61.8202 42.404C61.8073 45.31 59.7278 46.3949 58.475 46.847V46.847Z" fill="#CDF2F2"/>
</svg>
