<svg width="78" height="78" viewBox="0 0 78 78" fill="none" xmlns="http://www.w3.org/2000/svg">
<path d="M38.6208 77.33C17.0281 76.9151 0.150987 59.2147 0 38.6208C0.419837 17.0442 18.0262 0.150987 38.6208 0C60.1986 0.431372 77.1788 17.9984 77.33 38.6208C76.9035 60.2147 59.2424 77.1788 38.6208 77.33ZM38.6208 2.73967C18.5718 3.13444 2.79078 19.4763 2.65132 38.6208C3.04126 58.6857 19.4772 74.4508 38.6208 74.5903C58.6857 74.2002 74.4508 57.7644 74.5903 38.6208C74.2119 18.5571 57.7368 2.879 38.6208 2.73967V2.73967ZM29.3412 70.2598L39.2394 41.8023L49.5795 69.6411C42.6133 71.9732 36.0273 72.1145 29.3412 70.2598ZM21.7407 19.9732C18.1172 20.4658 14.5931 20.6414 11.1355 20.5035C17.7006 11.1175 28.2123 5.83706 38.6208 5.74452C47.1341 5.90563 55.0708 9.12372 60.8918 14.4055C58.1922 14.2059 56.5757 15.3899 55.4125 17.4103C53.7219 22.6261 57.2942 26.4871 59.3012 30.4018C61.1985 33.9786 61.048 38.0457 60.0081 41.5373L55.059 58.4173L43.1281 22.978C44.3712 22.8624 45.6225 22.8251 46.7516 22.6245C48.0879 22.327 48.3811 21.0834 47.4586 20.3267C47.1641 20.0911 46.8399 19.9733 46.4864 19.9733L39.3279 20.5036H33.8927C32.3582 20.5942 28.0251 19.1119 27.662 21.1223C27.4744 21.8967 28.0525 22.5037 28.7225 22.6246C29.9047 22.7778 31.2592 22.9517 32.346 23.0665L37.5602 37.0301L30.3134 58.4173L18.2941 22.978C19.5659 22.8676 20.8545 22.829 22.0059 22.6245C22.9487 22.5064 23.361 22.0351 23.2432 21.2105C23.0761 20.4773 22.4226 19.9819 21.7407 19.9732V19.9732ZM8.4842 25.4527L24.3037 68.2272C18.5957 65.4137 14.0829 61.2762 10.8703 56.3404C4.99358 46.9621 4.3754 35.0641 8.4842 25.4527V25.4527ZM70.3041 47.4143C67.7069 55.8953 62.4025 62.9198 55.0591 67.1666C55.4125 66.2239 55.9723 64.6332 56.7382 62.3942L65.9295 35.7043C66.8132 33.1119 67.4319 30.2249 67.7854 27.0434C67.9048 25.7417 67.9088 24.4294 67.6971 23.2431C71.4628 31.3656 72.5312 39.411 70.3041 47.4143V47.4143Z" fill="#CDF2F2"/>
</svg>
