<svg width="90" height="55" viewBox="0 0 90 55" fill="none" xmlns="http://www.w3.org/2000/svg">
<path d="M45.1691 0.00373414C37.4538 0.00373414 31.419 0.765553 26.7883 2.13235C26.9026 2.02887 27.0159 1.92431 27.1282 1.81866C27.2701 1.68048 26.9414 1.58712 26.2767 1.56472C24.2825 1.4975 19.3046 2.09874 15.1108 4.19748C10.3569 6.43439 -0.267464 18.1828 0.00514828 18.8774C0.285229 19.5758 5.45739 23.9002 6.99596 25.5807C7.97438 26.701 10.9096 36.6308 13.5685 34.9541C14.2706 34.4649 14.5581 32.523 14.8009 30.1255C15.0175 31.9815 15.2303 33.9084 15.5216 35.6524C15.9399 38.4495 19.5809 40.6827 20.0029 43.3416C20.5183 47.1283 22.8411 49.776 27.397 51.4602C29.2045 53.9548 32.0202 52.6925 34.119 53.8278C37.4799 55.6464 41.2517 54.8062 45.0235 54.8062C48.8027 54.8062 52.4363 55.5008 55.9279 53.6859C58.0827 52.5656 60.8573 53.7979 62.6872 51.5199C67.2619 49.8394 69.5249 47.1731 70.0515 43.3416C70.4697 40.6827 73.9651 38.4495 74.3834 35.6524C74.6224 34.2333 74.7942 32.6574 74.9734 31.1599C75.1863 33.0271 75.4589 34.5358 76.0601 34.9541C78.5771 36.6308 81.6543 26.701 82.6327 25.5807C84.1713 23.9002 89.3434 19.5758 89.6235 18.8774C89.8998 18.1754 79.1373 6.43065 74.3871 4.19374C70.1896 2.095 65.2117 1.49376 63.2175 1.56098C62.5939 1.57965 62.3026 1.66928 62.3773 1.79252C57.9931 0.642317 52.3989 0 45.1616 0L45.1691 0.00373414ZM45.2811 1.87094C53.508 1.87094 59.6511 2.71118 63.9905 4.1676C64.4872 4.33565 64.8793 4.53357 65.3274 4.71656C67.9042 7.38666 71.3921 11.5505 72.8485 16.3567C72.9419 16.6555 72.9979 16.9766 73.0838 17.2828V17.3127C73.2519 20.1882 74.2639 22.6044 73.9427 24.7442C73.3714 28.4711 73.0913 32.1122 72.5498 35.3499L72.5423 35.3649V35.3798C72.434 36.0968 71.7282 37.1574 70.7573 38.3935C69.7826 39.6258 68.5316 41.015 68.2104 43.054V43.0764L68.2029 43.0876C67.8295 45.8249 66.6345 47.5689 63.8337 48.9955C64.3005 47.3374 64.5992 45.0557 64.5992 41.6648C64.7374 37.4711 64.8868 35.7943 61.3876 31.6006C58.7359 28.2089 55.0905 25.7307 50.9612 24.5127C50.5466 23.0562 48.2649 21.3907 45.1691 21.3907C42.0733 21.3907 39.8849 22.9666 39.4368 24.4529C35.2264 25.6496 31.5049 28.1524 28.8086 31.6006C25.3132 35.7943 25.5971 37.613 25.5971 41.6685C25.5971 45.0407 25.8958 47.3187 26.3551 48.988C23.4796 47.554 22.2211 45.7913 21.8477 43.0876V43.0503C21.5228 40.9852 20.2158 39.6034 19.2075 38.3711C18.1992 37.1387 17.4822 36.0669 17.3776 35.3798L17.3702 35.3649V35.3462C16.8324 32.1085 16.5486 28.4749 15.9772 24.7479V24.7405C15.6598 22.6006 16.6606 20.1845 16.8324 17.309V17.365C16.8809 16.831 16.8959 16.4687 16.9258 15.9833C18.2701 11.6514 21.2315 7.8684 23.6664 5.24311C24.5449 4.82887 25.4478 4.46846 26.3701 4.16387C30.8215 2.70371 37.0505 1.86721 45.2774 1.86721L45.2811 1.87094ZM25.8211 16.0766C24.197 16.0885 22.6435 16.7422 21.4996 17.8952C20.3557 19.0482 19.7143 20.6068 19.7154 22.2309C19.7154 23.039 19.8746 23.8391 20.1839 24.5855C20.4932 25.332 20.9466 26.0102 21.5181 26.5814C22.0897 27.1526 22.7681 27.6055 23.5148 27.9144C24.2615 28.2233 25.0616 28.382 25.8697 28.3815C26.4275 28.382 26.9828 28.3066 27.5203 28.1575C28.8236 26.7533 30.2016 25.4575 31.6692 24.2662C31.9001 23.6124 32.0188 22.9243 32.0202 22.2309C32.0207 21.4229 31.862 20.6227 31.5531 19.8761C31.2443 19.1294 30.7913 18.4509 30.2201 17.8794C29.6489 17.3079 28.9707 16.8545 28.2242 16.5452C27.4778 16.2358 26.6777 16.0766 25.8697 16.0766C25.8535 16.0766 25.8373 16.0766 25.8211 16.0766ZM64.2743 16.0766C62.6489 16.0865 61.0935 16.7394 59.948 17.8926C58.8025 19.0458 58.1601 20.6055 58.1611 22.2309C58.1626 23.1127 58.3536 23.9838 58.7213 24.7853C59.8901 25.7712 61.0067 26.828 62.0636 27.9521C62.7818 28.2355 63.547 28.3812 64.3191 28.3815C65.9497 28.3805 67.5132 27.7321 68.6658 26.5787C69.8185 25.4254 70.466 23.8615 70.466 22.2309C70.4665 21.4232 70.3079 20.6233 69.9992 19.8769C69.6906 19.1305 69.238 18.4522 68.6672 17.8807C68.0964 17.3093 67.4186 16.8558 66.6726 16.5462C65.9266 16.2367 65.1268 16.0771 64.3191 16.0766C64.3042 16.0766 64.2893 16.0766 64.2743 16.0766ZM27.412 17.8916C27.8187 17.8935 28.2082 18.0565 28.4951 18.3448C28.782 18.6332 28.9431 19.0234 28.9431 19.4301C28.9431 19.8369 28.782 20.2271 28.4951 20.5154C28.2082 20.8038 27.8187 20.9667 27.412 20.9687C27.2096 20.9692 27.0091 20.9298 26.822 20.8527C26.6349 20.7756 26.4649 20.6623 26.3216 20.5194C26.1784 20.3765 26.0647 20.2067 25.9871 20.0198C25.9096 19.8329 25.8697 19.6325 25.8697 19.4301C25.8697 19.2278 25.9096 19.0274 25.9871 18.8405C26.0647 18.6536 26.1784 18.4838 26.3216 18.3409C26.4649 18.198 26.6349 18.0847 26.822 18.0076C27.0091 17.9305 27.2096 17.8911 27.412 17.8916ZM62.7768 17.8916C62.9792 17.8911 63.1797 17.9305 63.3668 18.0076C63.5539 18.0847 63.7239 18.198 63.8672 18.3409C64.0105 18.4838 64.1241 18.6536 64.2017 18.8405C64.2792 19.0274 64.3191 19.2278 64.3191 19.4301C64.3191 19.6322 64.2793 19.8323 64.202 20.0189C64.1247 20.2056 64.0114 20.3752 63.8685 20.5181C63.7256 20.6609 63.556 20.7743 63.3694 20.8516C63.1827 20.9289 62.9826 20.9687 62.7806 20.9687C62.5785 20.9687 62.3784 20.9289 62.1918 20.8516C62.0051 20.7743 61.8355 20.6609 61.6926 20.5181C61.5498 20.3752 61.4364 20.2056 61.3591 20.0189C61.2818 19.8323 61.242 19.6322 61.242 19.4301C61.242 19.0221 61.4041 18.6307 61.6926 18.3422C61.9812 18.0537 62.3725 17.8916 62.7806 17.8916H62.7768ZM43.6977 23.4409C43.7369 23.4387 43.7744 23.4437 43.8098 23.4558C43.9506 23.5009 44.0508 23.6557 44.0886 23.8866C44.1264 24.1175 44.0987 24.4056 44.0114 24.6882C43.968 24.8288 43.9112 24.9638 43.8442 25.0855C43.7772 25.2072 43.7013 25.3132 43.6208 25.3974C43.5403 25.4817 43.4569 25.5426 43.3753 25.5766C43.2937 25.6106 43.2154 25.6171 43.145 25.5956C43.0053 25.5489 42.9061 25.3934 42.8691 25.1627C42.832 24.9321 42.8601 24.6448 42.9471 24.3633C43.0227 24.1166 43.1387 23.8902 43.2754 23.7221C43.4122 23.5541 43.5613 23.4547 43.6977 23.4409ZM46.2073 23.523C46.3476 23.5153 46.5034 23.608 46.6448 23.7831C46.7862 23.9583 46.903 24.2036 46.9728 24.4716C47.047 24.759 47.0611 25.0494 47.0121 25.279C46.9631 25.5087 46.855 25.6588 46.7114 25.6965C46.5679 25.7337 46.4008 25.6556 46.2468 25.4791C46.0928 25.3027 45.9644 25.0425 45.8898 24.7554C45.8157 24.468 45.8015 24.1776 45.8505 23.948C45.8995 23.7183 46.0077 23.5682 46.1512 23.5305C46.1695 23.5262 46.1882 23.5237 46.2073 23.523ZM45.0272 25.3006C45.0272 25.3006 45.1579 26.1446 45.7181 26.4247C46.2782 26.7048 48.9371 25.8645 48.9371 25.8645C47.6786 26.8429 45.3035 26.8467 45.3035 27.1268V28.5197C45.3035 30.0433 45.4006 33.9757 45.1878 34.8122C48.2612 34.8308 52.9927 39.0171 52.9927 44.1781V44.4582C52.8508 39.4242 46.9803 35.3686 45.1654 35.3686C43.3467 35.3686 37.4725 39.2823 37.3306 44.4582V44.1781C37.3306 39.0918 41.9351 34.9541 45.0123 34.8196C44.7508 32.762 44.7396 30.5736 44.7396 28.5197V27.1305C43.9442 26.7799 43.1257 26.4842 42.2899 26.2454C42.9807 26.3687 43.6753 26.4322 44.3251 26.4322C44.8853 26.1483 45.0272 25.3044 45.0272 25.3044V25.3006ZM33.6709 30.3421C33.6808 30.3418 33.6908 30.3418 33.7007 30.3421C33.7743 30.3421 33.8471 30.3566 33.9151 30.3847C33.983 30.4129 34.0448 30.4541 34.0968 30.5062C34.1488 30.5582 34.1901 30.6199 34.2182 30.6879C34.2464 30.7558 34.2609 30.8287 34.2609 30.9022C34.2614 30.9761 34.2473 31.0494 34.2193 31.1178C34.1914 31.1861 34.1502 31.2483 34.0981 31.3008C34.0461 31.3532 33.9842 31.3948 33.916 31.4231C33.8477 31.4515 33.7746 31.4661 33.7007 31.4661C33.5522 31.4661 33.4097 31.4071 33.3046 31.3021C33.1996 31.197 33.1406 31.0545 33.1406 30.906C33.1404 30.7624 33.1953 30.6243 33.2939 30.5201C33.3926 30.4158 33.5275 30.3535 33.6709 30.3458V30.3421ZM37.8683 30.3421C37.877 30.3419 37.8858 30.3419 37.8945 30.3421C37.968 30.3421 38.0409 30.3566 38.1088 30.3847C38.1768 30.4129 38.2385 30.4541 38.2906 30.5062C38.3426 30.5582 38.3838 30.6199 38.412 30.6879C38.4401 30.7558 38.4546 30.8287 38.4546 30.9022C38.4551 30.9761 38.441 31.0494 38.4131 31.1178C38.3851 31.1861 38.344 31.2483 38.2919 31.3008C38.2398 31.3532 38.1779 31.3948 38.1097 31.4231C38.0415 31.4515 37.9683 31.4661 37.8945 31.4661C37.7459 31.4661 37.6034 31.4071 37.4984 31.3021C37.3933 31.197 37.3343 31.0545 37.3343 30.906C37.3341 30.7618 37.3896 30.6232 37.489 30.5188C37.5885 30.4145 37.7243 30.3525 37.8683 30.3458V30.3421ZM51.5736 30.3421C51.5823 30.3419 51.591 30.3419 51.5997 30.3421C51.6733 30.3421 51.7462 30.3566 51.8141 30.3847C51.8821 30.4129 51.9438 30.4541 51.9958 30.5062C52.0479 30.5582 52.0891 30.6199 52.1173 30.6879C52.1454 30.7558 52.1599 30.8287 52.1599 30.9022C52.1604 30.9761 52.1463 31.0494 52.1183 31.1178C52.0904 31.1861 52.0492 31.2483 51.9972 31.3008C51.9451 31.3532 51.8832 31.3948 51.815 31.4231C51.7468 31.4515 51.6736 31.4661 51.5997 31.4661C51.4512 31.4661 51.3087 31.4071 51.2037 31.3021C51.0986 31.197 51.0396 31.0545 51.0396 30.906C51.0394 30.7618 51.0948 30.6232 51.1943 30.5188C51.2938 30.4145 51.4296 30.3525 51.5736 30.3458V30.3421ZM55.7673 30.3421C55.7773 30.3418 55.7873 30.3418 55.7972 30.3421C55.8708 30.3421 55.9436 30.3566 56.0116 30.3847C56.0796 30.4129 56.1413 30.4541 56.1933 30.5062C56.2453 30.5582 56.2866 30.6199 56.3147 30.6879C56.3429 30.7558 56.3574 30.8287 56.3574 30.9022C56.3579 30.9761 56.3438 31.0494 56.3158 31.1178C56.2879 31.1861 56.2467 31.2483 56.1946 31.3008C56.1426 31.3532 56.0807 31.3948 56.0125 31.4231C55.9443 31.4515 55.8711 31.4661 55.7972 31.4661C55.6487 31.4661 55.5062 31.4071 55.4011 31.3021C55.2961 31.197 55.2371 31.0545 55.2371 30.906C55.2369 30.7624 55.2918 30.6243 55.3904 30.5201C55.4891 30.4158 55.624 30.3535 55.7673 30.3458V30.3421ZM34.6567 33.6993C34.6667 33.6991 34.6767 33.6991 34.6866 33.6993C34.8339 33.7013 34.9744 33.7612 35.0779 33.866C35.1813 33.9708 35.2393 34.1122 35.2393 34.2595C35.2393 34.4068 35.1813 34.5481 35.0779 34.653C34.9744 34.7578 34.8339 34.8177 34.6866 34.8196C34.538 34.8196 34.3956 34.7606 34.2905 34.6556C34.1855 34.5505 34.1264 34.408 34.1264 34.2595C34.1262 34.1159 34.1811 33.9778 34.2798 33.8736C34.3785 33.7694 34.5134 33.707 34.6567 33.6993ZM54.7889 33.6993C54.7964 33.6992 54.8039 33.6992 54.8113 33.6993C54.9599 33.6993 55.1024 33.7583 55.2074 33.8634C55.3125 33.9684 55.3715 34.1109 55.3715 34.2595C55.3715 34.408 55.3125 34.5505 55.2074 34.6556C55.1024 34.7606 54.9599 34.8196 54.8113 34.8196C54.6634 34.8187 54.5219 34.7592 54.4177 34.6543C54.3134 34.5493 54.2549 34.4074 54.2549 34.2595C54.2548 34.1153 54.3102 33.9767 54.4096 33.8723C54.5091 33.768 54.6449 33.706 54.7889 33.6993Z" fill="#CDF2F2"/>
</svg>
