<svg width="68" height="67" viewBox="0 0 68 67" fill="none" xmlns="http://www.w3.org/2000/svg">
<path d="M29.835 29.5517C29.5517 28.6733 29.2967 27.8233 29.0133 26.945C28.73 26.0667 28.475 25.245 28.2483 24.4233C28.0217 23.63 27.8233 22.8933 27.625 22.2133H27.5683C27.3133 23.4317 27.0017 24.65 26.605 25.8683C26.18 27.2283 25.755 28.645 25.3017 30.0617C24.905 31.5067 24.48 32.8383 24.055 34.0283H31.2517C31.0817 33.4305 30.855 32.725 30.6 31.9855C30.345 31.2233 30.09 30.4017 29.835 29.5517ZM55.9583 0H12.0417C5.38333 0 0 5.38333 0 12.0417V54.2583C0 60.9167 5.38333 66.3 12.0417 66.3H55.9583C62.6167 66.3 68 60.9167 68 54.2583V12.0417C68 5.38333 62.6167 0 55.9583 0ZM41.65 46.835H35.7255C35.53 46.8633 35.3317 46.7217 35.275 46.5233L32.9517 39.78H22.4117L20.2583 46.4383C20.2017 46.6933 19.975 46.8633 19.72 46.8378H14.3933C14.0817 46.8378 13.9967 46.665 14.0817 46.3278L23.205 20.06C23.29 19.7767 23.375 19.465 23.4883 19.125C23.6017 18.53 23.6583 17.9067 23.6583 17.2833C23.63 17.1417 23.7433 17 23.885 16.9717H31.2233C31.45 16.9717 31.5633 17.0567 31.5917 17.1983L41.9333 46.3817C42.0183 46.6905 41.9333 46.835 41.65 46.835ZM51.2833 46.41C51.2833 46.7217 51.1728 46.8633 50.9178 46.8633H45.3617C45.0783 46.8633 44.9367 46.6905 44.9367 46.41V24.5933C44.9367 24.31 45.0528 24.1967 45.3078 24.1967H50.9178C51.1728 24.1967 51.2833 24.3383 51.2833 24.5933V46.41ZM50.6912 20.825C50.3566 21.1648 49.9531 21.4291 49.5079 21.6002C49.0627 21.7712 48.5861 21.845 48.11 21.8167C47.175 21.845 46.2683 21.4767 45.5855 20.825C44.9364 20.1152 44.5906 19.1797 44.6222 18.2183C44.5938 17.255 44.9622 16.3483 45.6393 15.6967C46.325 15.045 47.2317 14.705 48.1667 14.705C49.2745 14.705 50.1188 15.045 50.745 15.6967C51.3683 16.3767 51.7083 17.2833 51.68 18.2183C51.7083 19.1817 51.3683 20.1167 50.6912 20.825Z" fill="#CDF2F2"/>
</svg>
