<svg width="59" height="78" viewBox="0 0 59 78" fill="none" xmlns="http://www.w3.org/2000/svg">
<path d="M15.0065 0H23.3134V3.47336H18.4801V6.94672H23.3134V10.4201H15.0065V0Z" fill="#CDF2F2"/>
<path d="M24.9728 0H33.2829V3.02227H28.4496V3.6248H33.2829V10.5715H24.9728V7.40103H29.8061V6.79528H24.9728V0Z" fill="#CDF2F2"/>
<path d="M34.9456 0H43.2493V3.02227H38.416V3.6248H43.2493V10.5715H34.9456V7.40103H39.779V6.79528H34.9456V0Z" fill="#CDF2F2"/>
<path fill-rule="evenodd" clip-rule="evenodd" d="M29.471 77.329L7.09589 71.1169L0.5 15.1984H58.5L51.9073 71.1104L29.471 77.329ZM13.5403 40.5107L14.1558 47.3672H37.9261L37.1302 56.26L29.4807 58.3286H29.4742L21.8376 56.2665L21.3478 50.7987H14.4619L15.4221 61.5667L29.471 65.4654L43.5424 61.5667L45.2567 42.3505L45.4242 40.5107L46.6616 26.6269H12.3062L12.9313 33.4867H39.1473L38.5222 40.5107H13.5403V40.5107Z" fill="#CDF2F2"/>
</svg>
