<svg width="68" height="67" viewBox="0 0 68 67" fill="none" xmlns="http://www.w3.org/2000/svg">
<path fill-rule="evenodd" clip-rule="evenodd" d="M0 16.0006C0 7.16371 7.16372 0 16.0006 0H51.9994C60.8363 0 68 7.16372 68 16.0006V50.2994C68 59.1363 60.8363 66.3 51.9994 66.3H16.0006C7.16372 66.3 0 59.1363 0 50.2994V16.0006ZM51.9832 55.5815C48.8297 55.5815 47.0475 53.9792 45.679 51.7969L40.4855 54.7389C42.3612 58.3523 46.1947 61.1093 52.1305 61.1093C58.1995 61.1093 62.7187 58.0374 62.7187 52.4267C62.7187 47.2249 59.653 44.9127 54.2243 42.6392L52.6263 41.9734C49.8837 40.8132 48.6965 40.059 48.6965 38.1888C48.6965 36.6777 49.8865 35.5202 51.7565 35.5202C53.5897 35.5202 54.7712 36.2744 55.8677 38.1888L60.843 35.0755C58.7378 31.4649 55.8195 30.0864 51.7565 30.0864C46.0502 30.0864 42.398 33.6445 42.398 38.3186C42.398 43.3878 45.458 45.7884 50.0707 47.7028L51.6687 48.3714C54.5842 49.6145 56.321 50.3714 56.321 52.5068C56.321 54.2914 54.6295 55.5815 51.9832 55.5815ZM27.2198 55.5401C25.024 55.5401 24.1088 54.0759 23.1058 52.3356L17.9038 55.4075C19.4112 58.518 22.3748 61.0982 27.489 61.0982C33.1528 61.0982 37.0317 58.1617 37.0317 51.7112V30.44H30.6425V51.6284C30.6425 54.7417 29.3165 55.5401 27.217 55.5401H27.2198Z" fill="#CDF2F2"/>
</svg>
