<svg width="68" height="67" viewBox="0 0 68 67" fill="none" xmlns="http://www.w3.org/2000/svg">
<path d="M27.9083 23.0067C26.86 22.5817 25.7267 22.4117 24.565 22.44C23.8283 22.44 23.1767 22.44 22.6383 22.4683C22.0717 22.44 21.675 22.4683 21.4767 22.4967V32.0167C21.8733 32.045 22.2417 32.0733 22.5817 32.0733H24.0833C25.1883 32.0733 26.2933 31.9033 27.3417 31.5633C28.2483 31.3083 29.0417 30.77 29.665 30.0617C30.26 29.3533 30.5433 28.39 30.5433 27.1433C30.5717 26.265 30.345 25.3867 29.8917 24.6217C29.4192 23.886 28.7244 23.3203 27.9083 23.0067ZM55.9583 0H12.0417C5.38333 0 0 5.38333 0 12.0417V54.2555C0 60.9138 5.38333 66.2972 12.0417 66.2972H55.9583C62.6167 66.2972 68 60.9138 68 54.2555V12.0417C68 5.38333 62.6167 0 55.9583 0ZM35.0172 33.0083C33.8867 34.595 32.3 35.785 30.4583 36.465C28.5317 37.1733 26.4067 37.4283 24.0833 37.4283C23.4033 37.4283 22.95 37.4283 22.6667 37.4C22.3833 37.3717 21.9867 37.3717 21.4483 37.3717V46.4638C21.4767 46.6622 21.335 46.835 21.1367 46.8633H15.64C15.4133 46.8633 15.3 46.7472 15.3 46.4922V17.34C15.3 17.1417 15.385 17.0283 15.5833 17.0283C16.065 17.0283 16.5183 17.0283 17.17 17C17.85 16.9717 18.5583 16.9717 19.3233 16.9433C20.0883 16.915 20.91 16.915 21.7883 16.8867C22.6667 16.8583 23.5167 16.8583 24.3667 16.8583C26.69 16.8583 28.6167 17.1417 30.2033 17.7367C31.62 18.2183 32.9233 19.0117 34 20.06C34.9067 20.9667 35.615 22.0717 36.0683 23.29C36.4905 24.48 36.7172 25.6983 36.7172 26.9733C36.72 29.41 36.1533 31.4217 35.0172 33.0083ZM55.1083 44.03C54.315 45.1633 53.2072 46.0388 51.935 46.5545C50.5467 47.1467 48.8467 47.4555 46.8038 47.4555C45.5033 47.4555 44.2255 47.345 42.9533 47.09C41.9617 46.9172 40.97 46.6083 40.0633 46.1833C39.865 46.0728 39.7205 45.8745 39.7488 45.6478V40.7178C39.7488 40.6357 39.78 40.5195 39.865 40.4628C39.9472 40.4062 40.035 40.4345 40.12 40.4912C41.225 41.1428 42.3867 41.599 43.6333 41.8795C44.7072 42.1628 45.8405 42.3045 46.9767 42.3045C48.0533 42.3045 48.8183 42.16 49.3283 41.905C49.7817 41.7067 50.0933 41.225 50.0933 40.715C50.0933 40.3155 49.8667 39.95 49.4133 39.5817C48.96 39.2162 48.0278 38.7912 46.6395 38.2472C45.1945 37.7372 43.8657 37.0572 42.6162 36.21C41.7296 35.575 40.9935 34.7528 40.46 33.8017C40.0097 32.9052 39.7869 31.9117 39.8112 30.9088C39.8112 29.6905 40.1512 28.5288 40.7773 27.4805C41.4857 26.3472 42.5312 25.4405 43.7495 24.8738C45.0783 24.1967 46.75 23.885 48.7617 23.885C49.9233 23.885 51.1133 23.97 52.275 24.14C53.125 24.2533 53.9467 24.48 54.7117 24.7917C54.8222 24.82 54.9383 24.9333 54.995 25.0467C55.0233 25.16 55.0517 25.2733 55.0517 25.3867V30.005C55.0517 30.1183 54.995 30.2317 54.91 30.2883C54.655 30.345 54.5133 30.345 54.4 30.2883C53.55 29.835 52.6433 29.5233 51.68 29.325C50.6317 29.0983 49.5833 28.9567 48.5067 28.9567C47.94 28.9283 47.345 29.0133 46.8038 29.155C46.4383 29.24 46.1238 29.4383 45.9255 29.7217C45.7838 29.9483 45.6988 30.2317 45.6988 30.4867C45.6988 30.7417 45.8122 30.9967 45.985 31.2233C46.24 31.535 46.5772 31.79 46.9483 31.9883C47.5972 32.3283 48.28 32.64 48.9572 32.9233C50.49 33.4333 51.9633 34.1417 53.3233 34.9917C54.2583 35.5838 55.0233 36.38 55.5588 37.3433C56.0122 38.2443 56.2388 39.2417 56.2105 40.2588C56.2417 41.5933 55.845 42.9222 55.1083 44.03Z" fill="#CDF2F2"/>
</svg>
